<?xml version="1.0" encoding="UTF-8"?><svg id="Layer_2" xmlns="http://www.w3.org/2000/svg" viewBox="0 0 275.87 288"><defs><style>.cls-1{fill:#fff;stroke-width:0px;}</style></defs><g id="Layer_2-2"><rect class="cls-1" x="139.45" y="234.95" width="104.59" height="30.32"/><polyline class="cls-1" points="139.45 0 139.45 244.04 168.25 244.04 168.25 0"/><polygon class="cls-1" points="275.3 140.5 275.87 107.62 154.64 40.57 140.66 65.75 275.3 140.5"/><polygon class="cls-1" points="150.84 23.87 164.82 49.05 131.87 67.35 132.02 34.86 150.84 23.87"/><polygon class="cls-1" points="244.04 104.63 215.24 93.98 215.24 244.04 244.04 244.04 244.04 104.63"/><rect class="cls-1" x="16.67" y="234.95" width="104.59" height="30.32"/><polygon class="cls-1" points="121.26 60.63 92.46 79.14 92.46 237.98 121.26 237.98 121.26 60.63"/><polygon class="cls-1" points="121.26 40.93 121.26 73.45 .03 140.5 0 107.62 121.26 40.93"/><polygon class="cls-1" points="45.47 103.07 16.67 124.74 16.67 288 45.47 288 45.47 103.07"/></g></svg>