<svg width="68" height="72" viewBox="0 0 68 72" fill="none" xmlns="http://www.w3.org/2000/svg">
<g clip-path="url(#clip0_165_50)">
<path d="M60.1537 58.7375H34.373V66.3175H60.1537V58.7375Z" fill="black"/>
<path d="M34.373 0V61.01H41.472V0" fill="black"/>
<path d="M67.8597 35.125L68.0002 26.905L38.1178 10.1425L34.6719 16.4375L67.8597 35.125Z" fill="black"/>
<path d="M37.1818 5.9675L40.6278 12.2625L32.5059 16.8375L32.5428 8.715L37.1818 5.9675Z" fill="black"/>
<path d="M60.1537 26.1575L53.0547 23.495V61.01H60.1537V26.1575Z" fill="black"/>
<path d="M29.8901 58.7375H4.10938V66.3175H29.8901V58.7375Z" fill="black"/>
<path d="M29.89 15.1575L22.791 19.785V59.495H29.89V15.1575Z" fill="black"/>
<path d="M29.8897 10.2325V18.3625L0.00739479 35.125L0 26.905L29.8897 10.2325Z" fill="black"/>
<path d="M11.2084 25.7675L4.10938 31.185V72H11.2084V25.7675Z" fill="black"/>
</g>
<defs>
<clipPath id="clip0_165_50">
<rect width="68" height="72" fill="white"/>
</clipPath>
</defs>
</svg>
