<svg width="60" height="60" viewBox="0 0 60 60" fill="none" xmlns="http://www.w3.org/2000/svg">
<g clip-path="url(#clip0_135_4)">
<path fill-rule="evenodd" clip-rule="evenodd" d="M30 5C16.1925 5 5 16.1925 5 30C5 34.725 6.3125 39.15 8.595 42.92L6.365 50.5C6.23696 50.9352 6.22854 51.3969 6.34061 51.8365C6.45269 52.276 6.68112 52.6773 7.0019 52.9981C7.32268 53.3189 7.72395 53.5473 8.16354 53.6594C8.60313 53.7715 9.06479 53.763 9.5 53.635L17.08 51.405C20.9767 53.7627 25.4455 55.0062 30 55C43.8075 55 55 43.8075 55 30C55 16.1925 43.8075 5 30 5ZM24.345 35.6575C29.4025 40.7125 34.23 41.38 35.935 41.4425C38.5275 41.5375 41.0525 39.5575 42.035 37.26C42.159 36.9742 42.2041 36.6603 42.1654 36.3512C42.1267 36.042 42.0057 35.7489 41.815 35.5025C40.445 33.7525 38.5925 32.495 36.7825 31.245C36.4046 30.9837 35.9402 30.8789 35.4867 30.9525C35.0332 31.0262 34.6258 31.2725 34.35 31.64L32.85 33.9275C32.7711 34.0505 32.6483 34.1387 32.5065 34.174C32.3647 34.2093 32.2148 34.1891 32.0875 34.1175C31.07 33.535 29.5875 32.545 28.5225 31.48C27.4575 30.415 26.5275 29 26.005 28.0475C25.9402 27.9265 25.9215 27.7861 25.9523 27.6523C25.9831 27.5186 26.0613 27.4005 26.1725 27.32L28.4825 25.605C28.8122 25.3184 29.0249 24.9205 29.0802 24.4872C29.1355 24.0538 29.0296 23.6153 28.7825 23.255C27.6625 21.615 26.3575 19.53 24.465 18.1475C24.2208 17.9705 23.9347 17.8601 23.6348 17.8273C23.335 17.7944 23.0318 17.8401 22.755 17.96C20.455 18.945 18.465 21.47 18.56 24.0675C18.6225 25.7725 19.29 30.6 24.345 35.6575Z" fill="white"/>
</g>
<defs>
<clipPath id="clip0_135_4">
<rect width="60" height="60" fill="white"/>
</clipPath>
</defs>
</svg>
